<svg width="444" height="358" viewBox="0 0 444 358" fill="none" xmlns="http://www.w3.org/2000/svg">
<path fill-rule="evenodd" clip-rule="evenodd" d="M175.5 2.50499C173.171 3.50598 171.064 5.70809 169.511 8.71103L167.071 13.2155L168.957 27.8296C169.955 35.8375 171.729 48.9505 172.949 56.9583C174.058 64.9662 175.833 77.0781 176.72 83.9849C177.607 90.8916 178.716 97.9986 179.049 99.7002C179.493 102.103 179.271 103.004 178.162 103.004C176.165 103.004 173.504 100.301 156.757 80.9819C130.917 51.0525 130.695 50.9524 118.939 50.9524C110.399 50.9524 105.963 53.1545 102.969 58.6599L100.529 63.2646L102.414 78.3793C103.523 86.6874 104.632 95.5962 104.965 98.1987L105.52 103.004H92.3221C81.6753 103.004 78.4591 103.304 75.3538 104.905C70.1413 107.408 67.4796 110.911 66.8142 116.317C65.3725 128.028 69.4757 132.733 90.2148 143.443C98.5326 147.647 105.52 151.551 105.852 152.052C106.296 152.652 89.2168 153.053 59.6054 153.053C16.0202 153.053 12.3603 153.153 8.81139 154.954C3.59891 157.457 0.937266 160.96 0.271842 166.366C-1.39172 179.779 3.5988 184.183 43.0806 203.402C46.4077 205.004 56.7218 210.309 66.1487 215.214C75.5755 220.119 83.4499 224.122 83.7826 224.122C84.0044 224.122 90.3259 227.225 97.6456 231.129C104.965 234.933 111.176 238.136 111.509 238.136C113.394 238.136 127.368 246.344 128.033 247.846C128.477 248.847 129.808 255.753 130.917 263.161C132.137 270.568 133.8 280.978 134.687 286.183C135.575 291.388 137.238 302.199 138.458 310.207C142.783 337.534 143.782 341.938 146.998 347.243C152.321 356.052 160.861 359.455 172.173 357.253C178.605 356.052 181.821 353.85 191.137 344.24C193.466 341.738 201.008 334.13 207.884 327.224C214.76 320.317 221.969 313.01 223.965 311.008C226.959 307.905 228.068 307.404 231.063 307.805C232.948 308.105 237.273 307.604 240.601 306.804L246.7 305.302L253.355 308.705C257.014 310.507 263.558 313.71 267.772 315.712C272.097 317.814 276.09 319.816 276.644 320.217C277.31 320.617 282.3 323.119 287.735 325.722C293.28 328.425 299.601 331.628 301.82 332.929C304.149 334.13 306.256 335.231 306.699 335.231C307.032 335.231 310.692 336.933 314.684 339.135C324.111 344.04 338.085 350.847 346.292 354.55C351.394 356.853 354.388 357.553 360.266 357.653C372.243 357.853 377.567 353.249 377.456 343.139C377.345 335.532 375.349 332.328 358.935 313.41C351.394 304.801 342.632 294.491 339.305 290.688C336.089 286.784 332.318 282.48 331.098 281.078C329.767 279.677 327.549 276.974 325.997 275.172C324.444 273.371 321.56 269.967 319.564 267.765C310.026 257.155 306.921 253.151 308.252 253.151C308.917 253.151 314.241 255.653 320.008 258.656C325.886 261.659 330.876 264.162 331.209 264.162C331.431 264.162 335.091 265.963 339.083 268.065C343.187 270.167 350.506 273.871 355.386 276.274C360.266 278.576 366.144 281.579 368.362 282.88C370.691 284.081 372.798 285.182 373.242 285.182C373.575 285.182 377.234 286.884 381.227 289.086C390.654 293.991 404.628 300.798 412.834 304.501C417.936 306.804 420.93 307.504 426.808 307.604C438.786 307.804 444.109 303.2 443.998 293.09C443.887 285.482 441.891 282.279 425.477 263.361C417.936 254.752 409.175 244.442 405.847 240.639C402.631 236.735 398.861 232.43 397.641 231.029C396.31 229.628 394.092 226.925 392.539 225.123C390.986 223.322 388.325 220.118 386.439 218.116C384.665 216.114 381.892 212.911 380.34 211.11C378.787 209.308 376.569 206.605 375.238 205.204C374.018 203.803 370.358 199.498 367.142 195.795L361.375 188.988L366.698 183.482C369.582 180.479 373.574 176.275 375.349 174.173C377.234 172.171 383.223 165.765 388.657 159.959C394.203 154.254 400.524 147.547 402.742 145.045C404.96 142.542 408.287 138.939 410.284 137.037C414.72 132.633 415.829 130.13 415.829 124.324C415.829 116.417 409.951 108.709 400.857 104.905C396.753 103.204 392.65 103.004 341.523 103.004H286.626L278.53 93.5944C274.094 88.4894 269.657 83.3842 268.548 82.183C267.55 81.082 265.332 78.6795 263.669 76.8778C262.116 74.9759 255.573 67.5687 249.251 60.4618C243.041 53.2547 231.396 40.0417 223.41 30.9328C197.126 0.803225 197.237 0.903325 185.37 0.903325C181.932 0.903325 177.496 1.70421 175.5 2.50499ZM197.459 10.9131C200.343 13.7159 207.108 21.0231 212.431 27.2292C217.865 33.4353 234.723 52.6541 250.027 69.9711C265.332 87.2881 279.084 103.003 280.526 104.705L283.188 108.008H395.533L400.635 111.112C407.067 114.915 410.284 119.52 410.284 124.925C410.284 128.528 409.507 129.83 404.517 134.935C401.3 138.138 392.65 147.147 385.33 155.055C378.011 162.962 367.918 173.573 362.928 178.778C357.826 183.883 353.723 188.387 353.723 188.688C353.723 188.988 355.83 191.59 358.492 194.593C361.042 197.496 366.92 204.203 371.467 209.608C376.014 214.913 382.336 222.12 385.33 225.624C388.436 229.127 393.537 235.133 396.753 238.837C399.97 242.54 409.397 253.551 417.603 263.161C438.01 286.784 438.231 287.084 438.342 293.19C438.453 300.497 435.792 302.699 426.919 302.499C421.263 302.399 418.934 301.699 410.616 297.494C405.293 294.892 400.413 292.49 399.748 292.289C399.193 292.089 394.092 289.486 388.436 286.584C382.78 283.581 377.9 281.178 377.567 281.178C377.234 281.178 372.244 278.676 366.477 275.673C360.82 272.67 355.83 270.168 355.386 270.168C355.053 270.168 350.506 267.865 345.294 265.163C340.081 262.36 335.645 260.158 335.312 260.158C334.98 260.158 331.32 258.456 327.327 256.254C323.224 254.152 315.461 250.248 310.027 247.645L300.045 242.841L296.829 246.244C295.054 248.146 287.513 255.753 280.083 263.161C272.652 270.568 261.229 282.179 254.575 288.986C242.042 301.699 240.49 302.699 231.95 302.599C226.072 302.499 222.08 299.997 218.42 294.091C215.647 289.687 214.871 286.083 210.657 259.157C209.437 251.749 207.773 241.139 206.886 235.634C205.888 230.128 204.113 219.518 202.893 212.111C201.673 204.703 200.453 197.196 200.01 195.594C199.344 192.391 198.901 192.091 181.822 183.883C177.274 181.681 169.4 177.677 164.41 174.974C159.308 172.271 154.872 170.069 154.539 170.069C154.317 170.069 144.669 165.265 133.246 159.359C121.822 153.453 105.187 144.945 96.2037 140.34C76.5737 130.23 72.0266 126.226 72.0266 119.42C72.0266 115.516 72.581 114.315 75.7973 111.412L79.5682 108.008H132.913C165.851 108.008 186.258 107.608 186.258 107.007C186.258 106.507 185.814 103.904 185.149 101.302C184.594 98.6993 183.263 90.5913 182.265 83.4844C181.378 76.2773 179.603 63.9652 178.494 55.9573C172.173 12.0142 172.173 12.5146 176.831 8.31049C179.049 6.30853 180.602 5.90824 185.925 5.90824C192.136 5.90824 192.358 6.00833 197.459 10.9131ZM130.917 60.9623C136.462 66.2675 167.404 101.502 167.404 102.403C167.404 102.703 165.519 103.004 163.079 103.004C158.865 103.004 158.643 102.803 142.562 84.4853C133.578 74.3754 125.15 65.3666 123.819 64.4657C121.157 62.764 115.723 62.4637 114.725 63.9652C114.281 64.5658 115.057 72.5737 116.388 81.7827C117.719 90.9918 118.828 99.4 118.939 100.501C119.161 102.103 118.385 102.603 115.612 102.803C111.176 103.204 111.619 104.405 107.959 77.979C106.074 64.1654 106.407 61.863 110.288 58.3596C112.507 56.3576 114.059 55.9573 119.383 55.9573C125.593 55.9573 125.815 56.0574 130.917 60.9623ZM123.819 160.66C126.48 162.062 128.366 163.563 128.033 164.164C127.589 164.664 105.52 165.064 72.0266 165.064C41.639 165.064 16.0203 165.365 15.0221 165.665C12.4713 166.566 12.804 171.371 15.7984 174.173C17.1292 175.575 24.7816 179.979 32.6557 183.983C69.9195 203.102 99.7526 218.217 118.052 227.426C129.031 232.831 138.569 237.736 139.235 238.236C139.9 238.737 140.898 241.039 141.231 243.441C142.118 248.346 146.776 276.073 149.105 290.688C157.09 340.737 156.868 339.536 160.417 343.239C163.079 346.142 166.295 346.943 170.066 345.641C171.064 345.341 181.6 335.131 193.577 323.119L215.314 301.298L217.976 303C221.193 305.102 221.303 306.403 218.309 308.806C216.978 309.806 206.997 319.816 196.017 331.027C182.931 344.24 174.946 351.547 173.06 351.948C167.737 353.249 160.75 352.648 157.644 350.546C155.981 349.445 153.43 346.542 151.877 344.14C149.105 339.736 148.329 336.132 144.114 309.206C142.894 301.799 141.231 291.188 140.344 285.683C139.345 280.177 137.571 269.567 136.351 262.16C135.131 254.752 133.911 247.245 133.467 245.643C132.802 242.44 132.358 242.14 115.279 233.932C110.732 231.73 102.858 227.726 97.8673 225.023C92.7657 222.32 88.3294 220.118 87.9967 220.118C87.7749 220.118 78.1263 215.314 66.7032 209.408C55.2801 203.502 38.6446 194.994 29.6614 190.389C10.0314 180.279 5.48427 176.275 5.48427 169.469C5.48427 165.565 6.03868 164.364 9.2549 161.461L13.0258 158.058H118.939L123.819 160.66ZM309.694 265.163C312.245 268.166 316.57 273.271 319.342 276.374C322.115 279.477 326.995 285.082 330.211 288.886C333.427 292.589 342.854 303.6 351.061 313.21C371.467 336.833 371.689 337.133 371.8 343.239C371.911 350.546 369.249 352.749 360.377 352.548C354.721 352.448 352.392 351.748 344.074 347.543C338.751 344.941 333.871 342.539 333.205 342.338C332.651 342.138 327.549 339.535 321.893 336.633C316.237 333.63 311.357 331.227 311.025 331.227C310.692 331.227 305.701 328.725 299.934 325.722C294.278 322.719 289.287 320.217 288.844 320.217C288.4 320.217 285.184 318.715 281.746 316.813C278.308 315.012 271.765 311.608 267.218 309.406C254.796 303.4 251.691 301.798 251.691 301.098C251.691 300.697 252.578 299.396 253.687 298.195L255.794 295.893L296.164 315.912C355.164 345.241 357.382 346.242 361.264 346.242C364.369 346.242 364.813 345.942 364.813 343.439C364.813 340.336 362.484 337.433 321.782 290.387C306.367 272.57 293.835 257.855 293.835 257.655C293.835 257.455 294.944 256.254 296.385 255.153L298.825 253.051L301.931 256.354C303.594 258.156 307.143 262.16 309.694 265.163Z" fill="url(#paint0_linear_1359_44119)"/>
<defs>
<linearGradient id="paint0_linear_1359_44119" x1="357.184" y1="27.3142" x2="334.252" y2="373.365" gradientUnits="userSpaceOnUse">
<stop stop-color="#B0FE76"/>
<stop offset="1" stop-color="#B0FE76" stop-opacity="0"/>
</linearGradient>
</defs>
</svg>
