<svg width="32" height="26" viewBox="0 0 32 26" fill="none" xmlns="http://www.w3.org/2000/svg">
<path id="Vector" d="M31.9596 3.84004C30.8396 4.32004 29.5596 4.64005 28.2796 4.80005C29.5596 4.00005 30.6796 2.72005 31.1596 1.28005C29.8796 2.08005 28.5996 2.56005 26.9996 2.88005C25.8796 1.60005 24.1196 0.800049 22.3596 0.800049C18.8396 0.800049 15.9596 3.68005 15.9596 7.20005C15.9596 7.68005 15.9596 8.16004 16.1196 8.64004C10.8396 8.32004 6.0396 5.76004 2.8396 1.92004C2.3596 2.88004 2.0396 4.00004 2.0396 5.12004C2.0396 7.36004 3.1596 9.28005 4.9196 10.4C3.7996 10.4 2.8396 10.08 2.0396 9.60005C2.0396 12.64 4.27959 15.36 7.1596 15.84C6.67959 16 6.03961 16 5.39961 16C4.91961 16 4.5996 16 4.1196 15.84C4.9196 18.4 7.31961 20.32 10.1996 20.32C7.95961 22.08 5.23961 23.04 2.19961 23.04C1.71961 23.04 1.23961 23.0401 0.599609 22.8801C3.47961 24.6401 6.8396 25.7601 10.5196 25.7601C22.3596 25.7601 28.7596 16 28.7596 7.52004V6.72004C30.0396 6.24004 31.1596 5.12004 31.9596 3.84004Z" fill="white"/>
</svg>
