<svg width="74" height="74" viewBox="0 0 74 74" fill="none" xmlns="http://www.w3.org/2000/svg">
<path d="M74 11.5625C74 5.17671 68.8233 0 62.4375 0H11.5625C5.17671 0 0 5.17671 0 11.5625V62.4375C0 68.8233 5.17671 74 11.5625 74H62.4375C68.8233 74 74 68.8233 74 62.4375V11.5625Z" fill="#7289DA"/>
<path d="M33.6515 36.334C32.597 36.334 31.7645 37.259 31.7645 38.3875C31.7645 39.516 32.6155 40.441 33.6515 40.441C34.706 40.441 35.5385 39.516 35.5385 38.3875C35.557 37.259 34.706 36.334 33.6515 36.334ZM40.404 36.334C39.3495 36.334 38.517 37.259 38.517 38.3875C38.517 39.516 39.368 40.441 40.404 40.441C41.4585 40.441 42.291 39.516 42.291 38.3875C42.291 37.259 41.4585 36.334 40.404 36.334Z" fill="white"/>
<path d="M49.395 20.8125H24.605C22.5145 20.8125 20.8125 22.5145 20.8125 24.6235V49.6355C20.8125 51.7445 22.5145 53.4465 24.605 53.4465H45.584L44.6035 50.024L46.9715 52.2255L49.21 54.2975L53.1875 57.8125V24.6235C53.1875 22.5145 51.4855 20.8125 49.395 20.8125ZM42.254 44.9735C42.254 44.9735 41.588 44.178 41.033 43.475C43.4565 42.7905 44.3815 41.2735 44.3815 41.2735C43.623 41.773 42.9015 42.1245 42.254 42.365C41.329 42.7535 40.441 43.0125 39.5715 43.1605C37.7955 43.4935 36.1675 43.401 34.78 43.142C33.7255 42.9385 32.819 42.6425 32.0605 42.3465C31.635 42.18 31.1725 41.9765 30.71 41.7175C30.6545 41.6805 30.599 41.662 30.5435 41.625C30.5065 41.6065 30.488 41.588 30.4695 41.5695C30.1365 41.3845 29.9515 41.255 29.9515 41.255C29.9515 41.255 30.8395 42.735 33.189 43.438C32.634 44.141 31.9495 44.9735 31.9495 44.9735C27.861 44.844 26.307 42.1615 26.307 42.1615C26.307 36.2045 28.971 31.376 28.971 31.376C31.635 29.378 34.1695 29.4335 34.1695 29.4335L34.3545 29.6555C31.0245 30.6175 29.489 32.079 29.489 32.079C29.489 32.079 29.896 31.857 30.5805 31.5425C32.56 30.673 34.1325 30.4325 34.78 30.377C34.891 30.3585 34.9835 30.34 35.0945 30.34C36.223 30.192 37.4995 30.155 38.8315 30.303C40.589 30.5065 42.476 31.0245 44.4 32.079C44.4 32.079 42.9385 30.6915 39.7935 29.7295L40.0525 29.4335C40.0525 29.4335 42.587 29.378 45.251 31.376C45.251 31.376 47.915 36.2045 47.915 42.1615C47.915 42.1615 46.3425 44.844 42.254 44.9735Z" fill="white"/>
</svg>
