<svg width="16" height="14" viewBox="0 0 16 14" fill="none" xmlns="http://www.w3.org/2000/svg">
<path fill-rule="evenodd" clip-rule="evenodd" d="M16 2C16 0.89543 15.1046 0 14 0H13.2C12.0954 0 11.2 0.895431 11.2 2V12C11.2 13.1046 12.0954 14 13.2 14H14C15.1046 14 16 13.1046 16 12V2ZM10.4004 5.29412C10.4004 4.18955 9.50496 3.29412 8.40039 3.29412H7.60039C6.49582 3.29412 5.60039 4.18955 5.60039 5.29412V12C5.60039 13.1046 6.49582 14 7.60039 14H8.40039C9.50496 14 10.4004 13.1046 10.4004 12V5.29412ZM2.7998 6.58824C3.90437 6.58824 4.7998 7.48367 4.7998 8.58824V12C4.7998 13.1046 3.90438 14 2.79981 14H1.9998C0.895235 14 -0.00019455 13.1046 -0.00019455 12V8.58823C-0.00019455 7.48367 0.895234 6.58824 1.9998 6.58824H2.7998Z" fill="white"/>
</svg>
