<svg width="16" height="14" viewBox="0 0 16 14" fill="none" xmlns="http://www.w3.org/2000/svg">
<path fill-rule="evenodd" clip-rule="evenodd" d="M13.2 2H14L14 12H13.2L13.2 2ZM14 0C15.1046 0 16 0.89543 16 2V12C16 13.1046 15.1046 14 14 14H13.2C12.0954 14 11.2 13.1046 11.2 12V2C11.2 0.895431 12.0954 0 13.2 0H14ZM7.60039 5.29412H8.40039L8.40039 12H7.60039L7.60039 5.29412ZM8.40039 3.29412C9.50496 3.29412 10.4004 4.18955 10.4004 5.29412V12C10.4004 13.1046 9.50496 14 8.40039 14H7.60039C6.49582 14 5.60039 13.1046 5.60039 12V5.29412C5.60039 4.18955 6.49582 3.29412 7.60039 3.29412H8.40039ZM2.7998 6.58824C3.90437 6.58824 4.7998 7.48367 4.7998 8.58824V12C4.7998 13.1046 3.90438 14 2.79981 14H1.9998C0.895235 14 -0.00019455 13.1046 -0.00019455 12V8.58823C-0.00019455 7.48367 0.895234 6.58824 1.9998 6.58824H2.7998Z" fill="#CE9A00"/>
</svg>
