<svg width="18" height="20" viewBox="0 0 18 20" fill="none" xmlns="http://www.w3.org/2000/svg">
<path d="M9.0001 5.2C13.6801 5.2 17.4001 4.12 17.4001 2.8C17.4001 1.48 13.6801 0.400002 9.0001 0.400002C4.3201 0.400002 0.600098 1.48 0.600098 2.8C0.600098 4.12 4.3201 5.2 9.0001 5.2ZM9.0001 16C4.3201 16 0.600098 14.92 0.600098 13.6V17.2C0.600098 18.52 4.3201 19.6 9.0001 19.6C13.6801 19.6 17.4001 18.52 17.4001 17.2V13.6C17.4001 14.92 13.6801 16 9.0001 16ZM9.0001 11.2C4.3201 11.2 0.600098 10.12 0.600098 8.8V12.4C0.600098 13.72 4.3201 14.8 9.0001 14.8C13.6801 14.8 17.4001 13.72 17.4001 12.4V8.8C17.4001 10.12 13.6801 11.2 9.0001 11.2ZM9.0001 6.4C4.3201 6.4 0.600098 5.32 0.600098 4V7.6C0.600098 8.92 4.3201 10 9.0001 10C13.6801 10 17.4001 8.92 17.4001 7.6V4C17.4001 5.32 13.6801 6.4 9.0001 6.4Z" fill="#222823"/>
</svg>
