<svg width="36" height="36" viewBox="0 0 36 36" fill="none" xmlns="http://www.w3.org/2000/svg">
<g clip-path="url(#clip0_1078_5374)">
<path d="M17.9793 0.197815C8.15848 0.197815 0.197266 8.15903 0.197266 17.9798C0.197266 27.8007 8.15848 35.7619 17.9793 35.7619C27.8001 35.7619 35.7613 27.8007 35.7613 17.9798C35.7613 8.15903 27.8001 0.197815 17.9793 0.197815Z" fill="#F8C341"/>
<path d="M17.9789 4.14938C10.3405 4.14938 4.14844 10.3415 4.14844 17.9799C4.14844 25.6182 10.3405 31.8103 17.9789 31.8103C25.6173 31.8103 31.8094 25.6182 31.8094 17.9799C31.8094 10.3415 25.6173 4.14938 17.9789 4.14938Z" fill="#CE8C00"/>
<path d="M29.209 7.3462L31.3903 8.04167L29.6279 9.50375L28.9324 11.685L27.4703 9.92262L25.2891 9.22319L27.0515 7.76111L27.7469 5.5838L29.209 7.3462Z" fill="#FFED9A"/>
<path d="M32.3283 14.3523L33.1028 15.5022L31.7158 15.5338L30.5659 16.3083L30.5343 14.9213L29.7598 13.7714L31.1468 13.7398L32.3006 12.9653L32.3283 14.3523Z" fill="#FFED9A"/>
<path d="M13.6178 13.8335C13.1077 13.8335 12.6935 14.2472 12.6935 14.7577V17.9613L10.4024 14.2701C10.1851 13.9192 9.76186 13.7564 9.36394 13.8686C8.9672 13.982 8.69336 14.3448 8.69336 14.7573V21.2023C8.69336 21.7129 9.10709 22.1266 9.61763 22.1266C10.1278 22.1266 10.5419 21.7129 10.5419 21.2023V17.9988L12.833 21.69C13.0045 21.9666 13.3044 22.1266 13.6182 22.1266C13.7024 22.1266 13.7877 22.1152 13.8715 22.091C14.2682 21.978 14.5421 21.6153 14.5421 21.2023V14.7573C14.5417 14.2472 14.1279 13.8335 13.6178 13.8335Z" fill="#F8C341"/>
<path d="M19.6904 15.6816C20.2009 15.6816 20.6147 15.2679 20.6147 14.7573C20.6147 14.2472 20.2009 13.8331 19.6904 13.8331H17.1274C16.6172 13.8331 16.2031 14.2468 16.2031 14.7573V21.2023C16.2031 21.7129 16.6169 22.1266 17.1274 22.1266C17.6379 22.1266 18.0517 21.7129 18.0517 21.2023V18.9041H19.6908C20.2013 18.9041 20.615 18.4904 20.615 17.9798C20.615 17.4697 20.2013 17.0556 19.6908 17.0556H18.0517V15.6812L19.6904 15.6816Z" fill="#F8C341"/>
<path d="M26.3409 13.8335H22.6782C22.1676 13.8335 21.7539 14.2472 21.7539 14.7577C21.7539 15.2679 22.1676 15.682 22.6782 15.682H23.5855V21.2027C23.5855 21.7133 23.9992 22.127 24.5097 22.127C25.0203 22.127 25.434 21.7133 25.434 21.2027V15.6816H26.3413C26.8518 15.6816 27.2655 15.2679 27.2655 14.7573C27.2652 14.2472 26.8514 13.8335 26.3409 13.8335Z" fill="#F8C341"/>
</g>
<defs>
<clipPath id="clip0_1078_5374">
<rect width="36" height="36" fill="white"/>
</clipPath>
</defs>
</svg>
