<svg width="96" height="96" viewBox="0 0 96 96" fill="none" xmlns="http://www.w3.org/2000/svg">
<path fill-rule="evenodd" clip-rule="evenodd" d="M47.8893 0.489859C47.8893 0.877743 47.6679 3.56522 47.4465 6.44664C46.2563 21.0477 44.9555 27.9188 42.2708 33.4045C41.0807 35.8704 40.5271 36.6462 38.6174 38.5579C36.7077 40.4696 35.9327 41.0237 33.4694 42.215C29.1518 44.3207 24.0038 45.5675 15.4792 46.5372C11.6875 46.9805 1.91739 47.8117 0.616558 47.8117C0.2014 47.8117 -0.0476989 47.8671 0.00765559 47.9225C0.0630101 47.9779 2.11113 48.1718 4.54673 48.3381C19.7415 49.4463 27.8786 50.9424 33.4694 53.6853C35.9327 54.8767 36.7077 55.4308 38.6174 57.3425C40.5271 59.2542 41.0807 60.03 42.2708 62.4958C45.0109 68.0924 46.5054 76.238 47.6125 91.4486C47.7786 93.8867 47.9723 95.9369 48.0277 95.9923C48.083 96.0478 48.1384 95.7984 48.1384 95.3828C48.1384 94.9949 48.3321 92.3352 48.5535 89.4537C49.7437 74.8527 51.0445 67.9816 53.7292 62.4958C54.9193 60.03 55.4729 59.2542 57.3826 57.3425C59.2923 55.4308 60.0673 54.8767 62.5306 53.6853C68.1214 50.9424 76.2585 49.4463 91.4533 48.3381C93.8889 48.1718 95.937 47.9779 95.9923 47.9225C96.0477 47.8671 95.7986 47.8117 95.3834 47.8117C94.0826 47.8117 84.3125 46.9805 80.5208 46.5372C71.9962 45.5675 66.8482 44.3207 62.5306 42.215C60.0673 41.0237 59.2923 40.4696 57.3826 38.5579C55.4729 36.6462 54.9193 35.8704 53.7292 33.4045C51.0168 27.8634 49.6883 20.826 48.5535 6.2527C48.1107 0.545268 47.9446 -0.895439 47.8893 0.489859Z" fill="#B0FE76"/>
</svg>
