<svg width="74" height="74" viewBox="0 0 74 74" fill="none" xmlns="http://www.w3.org/2000/svg">
<path d="M62.4375 0H11.5625C5.17671 0 0 5.17671 0 11.5625V62.4375C0 68.8233 5.17671 74 11.5625 74H62.4375C68.8233 74 74 68.8233 74 62.4375V11.5625C74 5.17671 68.8233 0 62.4375 0Z" fill="#1DA1F2"/>
<path d="M55.5 25.4375C54.1125 26.1312 52.725 26.3625 51.1063 26.5938C52.725 25.6688 53.8812 24.2812 54.3438 22.4312C52.9562 23.3562 51.3375 23.8188 49.4875 24.2812C48.1 22.8937 46.0187 21.9688 43.9375 21.9688C39.0813 21.9688 35.3813 26.5938 36.5375 31.2188C30.2938 30.9875 24.7438 27.9813 20.8125 23.3563C18.7313 26.825 19.8875 31.2188 23.125 33.5312C21.9688 33.5312 20.8125 33.0688 19.6562 32.6063C19.6562 36.075 22.2 39.3125 25.6688 40.2375C24.5125 40.4688 23.3563 40.7 22.2 40.4688C23.125 43.475 25.9 45.7875 29.3687 45.7875C26.5937 47.8687 22.4313 49.025 18.5 48.5625C21.9688 50.6437 25.9 52.0312 30.0625 52.0312C44.1687 52.0312 52.0312 40.2375 51.5687 29.3687C53.1875 28.4437 54.575 27.0563 55.5 25.4375Z" fill="white"/>
</svg>
