<svg width="29" height="28" viewBox="0 0 29 28" fill="none" xmlns="http://www.w3.org/2000/svg">
<path d="M1.79289 14.7071C1.40237 14.3166 1.40237 13.6834 1.79289 13.2929L13.7929 1.29289C13.9804 1.10536 14.2348 1 14.5 1C14.7652 1 15.0196 1.10536 15.2071 1.29289L27.2071 13.2929C27.3946 13.4804 27.5 13.7348 27.5 14C27.5 14.2652 27.3946 14.5196 27.2071 14.7071L15.2071 26.7071C14.8166 27.0976 14.1834 27.0976 13.7929 26.7071L1.79289 14.7071Z" fill="#D1FA2D" stroke="#384B00" stroke-width="2" stroke-linejoin="round"/>
<circle cx="17.8333" cy="16.9998" r="0.333333" fill="#B7DD21"/>
<circle cx="17.8333" cy="18.3333" r="0.333333" fill="#B7DD21"/>
<circle cx="16.4993" cy="19.6663" r="0.333333" fill="#B7DD21"/>
<circle cx="15.4993" cy="20.9998" r="0.333333" fill="#B7DD21"/>
<circle cx="16.1654" cy="15.9998" r="0.333333" fill="#B7DD21"/>
<circle cx="19.4993" cy="14.9998" r="0.333333" fill="#B7DD21"/>
<circle cx="17.666" cy="15.1665" r="0.5" fill="#B7DD21"/>
<circle cx="16.332" cy="18.1665" r="0.5" fill="#B7DD21"/>
<path d="M2.5 14L14.5 2L26.5 14L2.5 14Z" fill="#E1FF6B"/>
<path d="M14.334 3.6665L9.83398 13.3332" stroke="#F8FFDA" stroke-width="2" stroke-linecap="round"/>
<path d="M8.5 14L14.5 26L2.5 14L14.5 2L8.5 14Z" fill="#E3E73C"/>
<path d="M5.16666 14L14.5 26L2.5 14L14.5 2L5.16666 14Z" fill="#FFF9C1"/>
<path d="M8.5 14L14.5 2L2.5 14L8.5 14Z" fill="#F0F36F"/>
<path d="M5.16666 14L14.5 2L2.5 14L5.16666 14Z" fill="#FEF9CF"/>
<path d="M20.5 14L14.5 26L26.5 14L14.5 2L20.5 14Z" fill="#63C038"/>
<path d="M20.5 14L14.5 2L26.5 14L20.5 14Z" fill="#75D04A"/>
<path d="M23.8333 14L14.5 26L26.5 14L14.5 2L23.8333 14Z" fill="#AFD02A"/>
<path d="M23.8333 14L14.5 2L26.5 14L23.8333 14Z" fill="#C5E447"/>
<path d="M8.83268 8.3335L4.16602 13.3335" stroke="#FFFEF9" stroke-width="2" stroke-linecap="round"/>
</svg>
